<?xml version="1.0" encoding="UTF-8" standalone="no"?>
<svg xmlns="http://www.w3.org/2000/svg" viewBox="0 0 256 256">
  <circle cx="128" cy="128" r="128" fill="#A80030"/>
  <path d="M128 60.8c-37.113 0-67.2 30.087-67.2 67.2S90.887 195.2 128 195.2s67.2-30.087 67.2-67.2S165.113 60.8 128 60.8zm0 122.88c-30.72 0-55.68-24.96-55.68-55.68S97.28 72.32 128 72.32s55.68 24.96 55.68 55.68S158.72 183.68 128 183.68z" fill="#fff"/>
  <path d="M128 89.6c-21.76 0-39.36 17.6-39.36 39.36S106.24 168.32 128 168.32s39.36-17.6 39.36-39.36S149.76 89.6 128 89.6zm0 67.2c-15.36 0-27.84-12.48-27.84-27.84S112.64 101.12 128 101.12s27.84 12.48 27.84 27.84S143.36 156.8 128 156.8z" fill="#fff"/>
  <circle cx="128" cy="128" r="15.36" fill="#fff"/>
</svg>
