<?xml version="1.0" encoding="UTF-8" standalone="no"?>
<svg xmlns="http://www.w3.org/2000/svg" viewBox="0 0 256 256">
  <circle cx="128" cy="128" r="128" fill="#E95420"/>
  <path d="M52.317 128c0-11.577 9.387-20.964 20.964-20.964s20.964 9.387 20.964 20.964-9.387 20.964-20.964 20.964S52.317 139.577 52.317 128zM176.449 171.504c10.027 5.792 22.848 2.357 28.64-7.67 5.792-10.027 2.357-22.848-7.67-28.64-10.027-5.792-22.848-2.357-28.64 7.67-5.792 10.027-2.357 22.848 7.67 28.64zM197.419 92.806c10.027-5.792 13.462-18.613 7.67-28.64-5.792-10.027-18.613-13.462-28.64-7.67-10.027 5.792-13.462 18.613-7.67 28.64 5.792 10.027 18.613 13.462 28.64 7.67zM128 148.964c11.577 0 20.964-9.387 20.964-20.964s-9.387-20.964-20.964-20.964-20.964 9.387-20.964 20.964S116.423 148.964 128 148.964z" fill="#fff"/>
</svg>
